<svg xmlns="http://www.w3.org/2000/svg" viewBox="0 0 1400 420" fill="none"><defs><linearGradient id="a" x1="0" y1="210" x2="1400" y2="210" gradientUnits="userSpaceOnUse"><stop stop-color="#21C7FF"/><stop offset=".34" stop-color="#486BFF"/><stop offset=".55" stop-color="#9A55FF"/><stop offset=".78" stop-color="#35D9E6"/><stop offset="1" stop-color="#6478FF"/></linearGradient><linearGradient id="b" x1="0" y1="210" x2="1400" y2="210" gradientUnits="userSpaceOnUse"><stop stop-color="#7C5CFF" stop-opacity=".2"/><stop offset=".5" stop-color="#48CFFF"/><stop offset="1" stop-color="#8E5BFF" stop-opacity=".2"/></linearGradient><filter id="g" x="-30%" y="-100%" width="160%" height="300%"><feGaussianBlur stdDeviation="9"/></filter></defs><path d="M0 205C150 70 270 70 410 205S670 340 800 205 1050 70 1190 205 1320 300 1400 205" stroke="url(#b)" stroke-width="28" opacity=".5" filter="url(#g)"/><path d="M0 205C150 70 270 70 410 205S670 340 800 205 1050 70 1190 205 1320 300 1400 205" stroke="url(#a)" stroke-width="9" stroke-linecap="round"/><path d="M0 205C150 125 280 125 410 205S670 285 800 205 1050 125 1190 205 1320 260 1400 205" stroke="url(#a)" stroke-width="2.5" stroke-linecap="round" opacity=".65"/><path d="M725 205c0-54 44-98 98-98s98 44 98 98-44 98-98 98c-38 0-69-31-69-69s31-69 69-69c27 0 49 22 49 49s-22 49-49 49c-18 0-33-15-33-33s15-33 33-33" stroke="url(#a)" stroke-width="10" stroke-linecap="round"/><g fill="#C9F7FF"><circle cx="410" cy="205" r="7"/><circle cx="800" cy="205" r="9"/><circle cx="1190" cy="205" r="7"/></g></svg>